<mxfile host="app.diagrams.net" agent="Mozilla/5.0 (Windows NT 10.0; Win64; x64) AppleWebKit/537.36 (KHTML, like Gecko) Chrome/137.0.0.0 Safari/537.36" version="27.1.6">
  <diagram name="Airbnb ERD" id="airbnb-erd">
    <mxGraphModel dx="1426" dy="1843" grid="1" gridSize="10" guides="1" tooltips="1" connect="1" arrows="1" fold="1" page="1" pageScale="1" pageWidth="850" pageHeight="1100" math="0" shadow="0">
      <root>
        <mxCell id="0" />
        <mxCell id="1" parent="0" />
        <mxCell id="2" value="User&#xa;user_id (PK)&#xa;first_name&#xa;last_name&#xa;email&#xa;password_hash&#xa;phone_number&#xa;role&#xa;created_at" style="shape=swimlane;rounded=1;labelBackgroundColor=none;fillColor=#FAE5C7;strokeColor=#0F8B8D;fontColor=#143642;align=center;verticalAlign=top;labelPosition=center;verticalLabelPosition=middle;spacing=20;" parent="1" vertex="1">
          <mxGeometry x="20" y="-40" width="200" height="240" as="geometry" />
        </mxCell>
        <mxCell id="3" value="Property&#xa;property_id (PK)&#xa;host_id (FK)&#xa;name&#xa;description&#xa;location&#xa;pricepernight&#xa;created_at&#xa;updated_at" style="shape=swimlane;rounded=1;labelBackgroundColor=none;fillColor=#FAE5C7;strokeColor=#0F8B8D;fontColor=#143642;verticalAlign=top;spacing=20;" parent="1" vertex="1">
          <mxGeometry x="250" y="-40" width="200" height="240" as="geometry" />
        </mxCell>
        <mxCell id="4" value="Booking&#xa;booking_id (PK)&#xa;property_id (FK)&#xa;user_id (FK)&#xa;start_date&#xa;end_date&#xa;total_price&#xa;status&#xa;created_at" style="shape=swimlane;rounded=1;labelBackgroundColor=none;fillColor=#FAE5C7;strokeColor=#0F8B8D;fontColor=#143642;verticalAlign=top;spacing=20;" parent="1" vertex="1">
          <mxGeometry x="480" y="-40" width="200" height="240" as="geometry" />
        </mxCell>
        <mxCell id="5" value="Payment&#xa;payment_id (PK)&#xa;booking_id (FK)&#xa;amount&#xa;payment_date&#xa;payment_method" style="shape=swimlane;rounded=1;labelBackgroundColor=none;fillColor=#FAE5C7;strokeColor=#0F8B8D;fontColor=#143642;spacing=20;verticalAlign=top;" parent="1" vertex="1">
          <mxGeometry x="710" y="-40" width="200" height="220" as="geometry" />
        </mxCell>
        <mxCell id="6" value="Review&#xa;review_id (PK)&#xa;property_id (FK)&#xa;user_id (FK)&#xa;rating&#xa;comment&#xa;created_at" style="shape=swimlane;rounded=1;labelBackgroundColor=none;fillColor=#FAE5C7;strokeColor=#0F8B8D;fontColor=#143642;verticalAlign=top;spacing=20;" parent="1" vertex="1">
          <mxGeometry x="940" y="-40" width="200" height="220" as="geometry" />
        </mxCell>
        <mxCell id="7" value="Message&#xa;message_id (PK)&#xa;sender_id (FK)&#xa;recipient_id (FK)&#xa;message_body&#xa;sent_at" style="shape=swimlane;rounded=1;labelBackgroundColor=none;fillColor=#FAE5C7;strokeColor=#0F8B8D;fontColor=#143642;verticalAlign=top;spacing=20;" parent="1" vertex="1">
          <mxGeometry x="1170" y="-40" width="200" height="200" as="geometry" />
        </mxCell>
      </root>
    </mxGraphModel>
  </diagram>
</mxfile>
